<svg xmlns="http://www.w3.org/2000/svg" xmlns:xlink="http://www.w3.org/1999/xlink" viewBox="0 0 499.245 266.369"><defs><style>.a,.b,.c,.d,.e{fill:#fff;font-family:LemonMilk, "Lemon/Milk";letter-spacing:-0.026em;}.a{font-size:123px;}.b{font-size:57px;}.c{font-size:82px;}.d{font-size:105px;}.e{font-size:107px;}.f{filter:url(#k);}.g{filter:url(#i);}.h{filter:url(#g);}.i{filter:url(#e);}.j{filter:url(#c);}.k{filter:url(#a);}</style><filter id="a" x="4.945" y="0" width="388" height="186" filterUnits="userSpaceOnUse"><feOffset dx="8" dy="8" input="SourceAlpha"/><feGaussianBlur stdDeviation="3.5" result="b"/><feFlood flood-opacity="0.541"/><feComposite operator="in" in2="b"/><feComposite in="SourceGraphic"/></filter><filter id="c" x="357.676" y="70.876" width="120" height="98" filterUnits="userSpaceOnUse"><feOffset dx="8" dy="8" input="SourceAlpha"/><feGaussianBlur stdDeviation="3.5" result="d"/><feFlood flood-opacity="0.541"/><feComposite operator="in" in2="d"/><feComposite in="SourceGraphic"/></filter><filter id="e" x="75.821" y="125.269" width="190" height="131" filterUnits="userSpaceOnUse"><feOffset dx="8" dy="8" input="SourceAlpha"/><feGaussianBlur stdDeviation="3.5" result="f"/><feFlood flood-opacity="0.541"/><feComposite operator="in" in2="f"/><feComposite in="SourceGraphic"/></filter><filter id="g" x="245.593" y="125.269" width="176" height="131" filterUnits="userSpaceOnUse"><feOffset dx="8" dy="8" input="SourceAlpha"/><feGaussianBlur stdDeviation="3.5" result="h"/><feFlood flood-opacity="0.541"/><feComposite operator="in" in2="h"/><feComposite in="SourceGraphic"/></filter><filter id="i" x="0" y="101.369" width="87" height="162" filterUnits="userSpaceOnUse"><feOffset dx="8" dy="8" input="SourceAlpha"/><feGaussianBlur stdDeviation="3.5" result="j"/><feFlood flood-opacity="0.541"/><feComposite operator="in" in2="j"/><feComposite in="SourceGraphic"/></filter><filter id="k" x="411.245" y="101.369" width="88" height="165" filterUnits="userSpaceOnUse"><feOffset dx="8" dy="8" input="SourceAlpha"/><feGaussianBlur stdDeviation="3.5" result="l"/><feFlood flood-opacity="0.541"/><feComposite operator="in" in2="l"/><feComposite in="SourceGraphic"/></filter></defs><g transform="translate(-398.5 -100.5)"><g class="k" transform="matrix(1, 0, 0, 1, 398.5, 100.5)"><text class="a" transform="translate(7.44 135.5)"><tspan x="0" y="0">WALLY</tspan></text></g><g class="j" transform="matrix(1, 0, 0, 1, 398.5, 100.5)"><text class="b" transform="translate(360.18 135.38)"><tspan x="0" y="0">THE</tspan></text></g><g class="i" transform="matrix(1, 0, 0, 1, 398.5, 100.5)"><text class="c" transform="translate(78.32 216.77)"><tspan x="0" y="0">WEB</tspan></text></g><g class="h" transform="matrix(1, 0, 0, 1, 398.5, 100.5)"><text class="c" transform="translate(248.09 216.77)"><tspan x="0" y="0">DEV</tspan></text></g><g class="g" transform="matrix(1, 0, 0, 1, 398.5, 100.5)"><text class="d" transform="translate(2.5 217.87)"><tspan x="0" y="0">&lt;</tspan></text></g><g class="f" transform="matrix(1, 0, 0, 1, 398.5, 100.5)"><text class="e" transform="translate(413.74 219.87)"><tspan x="0" y="0">&gt;</tspan></text></g></g></svg>